<svg id="Layer_1" data-name="Layer 1" xmlns="http://www.w3.org/2000/svg" viewBox="0 0 17 17"><defs><style>.cls-1{fill:#012d45;}</style></defs><title>Artboard 1</title><g id="search-icon-inbox"><g id="Shape"><path class="cls-1" d="M17,15.66l-4.33-4.33A6.84,6.84,0,0,0,14.13,7a7,7,0,0,0-2.07-5,7.21,7.21,0,0,0-5-2,7.07,7.07,0,0,0-5,12.06,7,7,0,0,0,5,2.08,7.38,7.38,0,0,0,4.33-1.47L15.72,17ZM3.34,10.78a5.26,5.26,0,0,1,0-7.37A5.07,5.07,0,0,1,7.06,1.83a5.25,5.25,0,0,1,3.72,9A5.32,5.32,0,0,1,3.34,10.78Z"/></g></g></svg>